<?xml version="1.0" encoding="iso-8859-1"?>
<!-- Generator: Adobe Illustrator 19.0.0, SVG Export Plug-In . SVG Version: 6.00 Build 0)  -->
<svg version="1.1" id="Layer_1" xmlns="http://www.w3.org/2000/svg" xmlns:xlink="http://www.w3.org/1999/xlink" x="0px" y="0px"
	 viewBox="0 0 436 436" style="enable-background:new 0 0 436 436;" xml:space="preserve">
<path style="fill:#F6E89A;" d="M253.95,328c0,19.9-16.1,36-36,36l0,0c-19.9,0-36-16.1-36-36v-97.8c0-19.9,16.1-36,36-36l0,0
	c19.9,0,36,16.1,36,36V328z"/>
<path style="fill:#8D4520;" d="M217.95,376c-26.5,0-48-21.5-48-48v-97.8c0-26.5,21.5-48,48-48s48,21.5,48,48V328
	C265.95,354.5,244.45,376,217.95,376z M217.95,206.2c-13.2,0-24,10.8-24,24V328c0,13.2,10.8,24,24,24c13.2,0,24-10.8,24-24v-97.8
	C241.95,217,231.15,206.2,217.95,206.2z"/>
<path style="fill:#F7BB83;" d="M361.55,148c-5.1-76-68.3-136-145.6-136S75.45,72,70.35,148c-0.2,0-0.4,10-0.4,10v22.3V324
	c100,0,116-84,116-84c12.6-33.9,5.8-55.6-9.4-69.4c28.5-9.4,57.8-26,81.5-54.7c12,12,24.8,24.7,38.4,35.7
	c-37,8.2-71.9,30.4-50.4,88.3c0,0,16,84,116,84V180.3V158C361.95,158,361.85,148,361.55,148z"/>
<path style="fill:#8D4520;" d="M69.95,336h-12V157.8c0,0,0.1-2.6,0.1-5.1c0-1.3,0.1-2.7,0.1-3.7c0-0.6,0.1-1.2,0.2-1.8l0,0
	c2.7-39.9,20.3-77,49.5-104.4C137.25,15.2,175.65,0,215.95,0s78.7,15.2,108.1,42.8c28.9,27.1,46.4,63.7,49.4,103.2h0.6v189.9h-12
	c-56.5,0-88.2-25.3-104.9-46.6c-16.1-20.5-21.5-41.1-22.6-46.1c-9.5-25.9-9.4-48,0.3-65.7c7.4-13.5,19.9-23.9,37.5-31.1
	c-4.5-4.2-9.1-8.6-13.7-13.1c-17.4,18.2-38.2,32.5-62.3,42.7c8.6,14.7,12.6,36.3,1.2,67.3c-1.1,5-6.5,25.6-22.6,46.1
	C158.15,310.7,126.45,336,69.95,336z M81.95,158.1v153.4c77.8-6.1,91.6-70.9,92.2-73.8l0.2-0.9l0.3-0.9c9.5-25.5,7.4-43.9-6.2-56.3
	l-15.2-13.8l19.5-6.4c30.9-10.2,56.5-27.3,76-50.9l8.4-10.2l9.3,9.3c13,13,24.9,24.7,37.5,34.9l19.4,15.7l-24.3,5.4
	c-22.1,4.9-36.6,13.5-43.2,25.7c-6.3,11.5-5.8,27.2,1.5,46.7l0.4,0.9l0.2,1c0.6,2.8,14.4,67.7,92.2,73.8V158.4c0-0.3,0-0.5,0-0.8
	c0-0.6,0-1.4-0.1-2.2c0-0.5,0-1.2-0.1-2l-0.3-4.5C344.85,78.8,286.15,24,215.95,24S87.05,78.8,82.35,148.8l-0.2,3
	C82.05,153.6,81.95,156,81.95,158.1z"/>
<path style="fill:#F6E89A;" d="M258.05,95.9c-43.8,53.1-107.2,64.8-148.1,66.2v38.4c0,58.5,47.5,106,106,106s106-47.5,106-106V149
	C298.55,136.4,277.25,115.2,258.05,95.9z"/>
<g>
	<path style="fill:#8D4520;" d="M215.95,314.5c-62.9,0-114-51.1-114-114v-38.4c0-4.3,3.4-7.8,7.7-8c42.2-1.4,101.2-13.6,142.2-63.3
		c1.4-1.7,3.5-2.8,5.8-2.9s4.5,0.7,6,2.3c17.5,17.6,39.2,39.4,62,51.7c2.6,1.4,4.2,4.1,4.2,7v51.5
		C329.95,263.4,278.85,314.5,215.95,314.5z M117.95,169.7v30.8c0,54,44,98,98,98s98-44,98-98v-46.8c-20.6-12-39.5-30.1-55.5-46
		C216.65,153.6,160.75,167.1,117.95,169.7z"/>
	<circle style="fill:#8D4520;" cx="161.95" cy="200" r="12"/>
	<circle style="fill:#8D4520;" cx="273.95" cy="200" r="12"/>
	<path style="fill:#8D4520;" d="M185.95,240c0,16.6,13.4,32,30,32l0,0c16.6,0,30-15.4,30-32H185.95z"/>
	<path style="fill:#8D4520;" d="M53.95,436c-1.4,0-2.9-0.3-4.3-0.8c-6.2-2.4-9.3-9.3-6.9-15.5c14.4-37.8,42.6-64.9,81.7-78.6
		c29-10.1,53.8-9.2,54.9-9.2c6.6,0.3,11.8,5.9,11.5,12.5s-5.9,11.7-12.5,11.5l0,0c-0.2,0-21.9-0.7-46.7,8.1
		c-32.2,11.5-54.5,33.1-66.4,64.2C63.35,433.1,58.75,436,53.95,436z"/>
	<path style="fill:#8D4520;" d="M382.05,436c-4.8,0-9.4-2.9-11.2-7.7c-28.6-75-110.2-72.4-111.1-72.4c-6.6,0.2-12.2-4.9-12.5-11.5
		s4.9-12.2,11.5-12.5c1,0,25.4-1,53.9,9.2c38.3,13.7,66.2,40.9,80.6,78.6c2.4,6.2-0.7,13.1-6.9,15.5
		C384.95,435.7,383.45,436,382.05,436z"/>
</g>
<g>
</g>
<g>
</g>
<g>
</g>
<g>
</g>
<g>
</g>
<g>
</g>
<g>
</g>
<g>
</g>
<g>
</g>
<g>
</g>
<g>
</g>
<g>
</g>
<g>
</g>
<g>
</g>
<g>
</g>
</svg>
